<svg width="37" height="24" viewBox="0 0 37 24" fill="none" xmlns="http://www.w3.org/2000/svg">
<path d="M22.9663 4.1814H13.3793V19.8159H22.9663V4.1814Z" fill="#FF5F00"/>
<path d="M14.3668 11.9999C14.3656 10.4945 14.7074 9.00845 15.3663 7.65435C16.0253 6.30025 16.984 5.11355 18.1701 4.18404C16.7011 3.03133 14.9369 2.31453 13.0792 2.11556C11.2215 1.91659 9.34521 2.24348 7.66476 3.05887C5.98432 3.87426 4.56752 5.14525 3.57631 6.72659C2.58509 8.30792 2.05945 10.1358 2.05945 12.0013C2.05945 13.8668 2.58509 15.6947 3.57631 17.276C4.56752 18.8574 5.98432 20.1284 7.66476 20.9437C9.34521 21.7591 11.2215 22.086 13.0792 21.8871C14.9369 21.6881 16.7011 20.9713 18.1701 19.8186C16.9837 18.8888 16.0247 17.7016 15.3657 16.347C14.7068 14.9924 14.3652 13.5059 14.3668 11.9999Z" fill="#EB001B"/>
<path d="M33.3309 18.1616V17.8412H33.4692V17.7749H33.14V17.8412H33.27V18.1616H33.3309ZM33.9698 18.1616V17.7749H33.8702L33.7541 18.0511L33.6379 17.7749H33.5383V18.1616H33.6102V17.8688L33.7181 18.1201H33.7928L33.9007 17.8688V18.1616H33.9698Z" fill="#F79E1B"/>
<path d="M34.2819 11.9999C34.2819 13.8656 33.7561 15.6936 32.7647 17.275C31.7733 18.8563 30.3563 20.1273 28.6757 20.9426C26.995 21.7579 25.1185 22.0845 23.2607 21.8853C21.4029 21.686 19.6387 20.9689 18.1698 19.8158C19.3554 18.8855 20.3139 17.6985 20.973 16.3443C21.6321 14.9901 21.9746 13.5042 21.9746 11.9985C21.9746 10.4929 21.6321 9.00699 20.973 7.65282C20.3139 6.29865 19.3554 5.11162 18.1698 4.18129C19.6387 3.02821 21.4029 2.31106 23.2607 2.11181C25.1185 1.91255 26.995 2.23923 28.6757 3.0545C30.3563 3.86978 31.7733 5.14075 32.7647 6.72214C33.7561 8.30353 34.2819 10.1315 34.2819 11.9972V11.9999Z" fill="#F79E1B"/>
</svg>
