<svg width="16" height="16" viewBox="0 0 16 16" fill="none" xmlns="http://www.w3.org/2000/svg">
<path d="M2.39306 10.1811H1.10875C0.497375 10.1811 0 9.68374 0 9.0724C0 8.46102 0.497375 7.96365 1.10875 7.96365H2.72528C2.85588 7.96365 2.96172 8.06949 2.96172 8.20008C2.96172 8.33068 2.85588 8.43652 2.72528 8.43652H1.10875C0.758125 8.43652 0.472875 8.72177 0.472875 9.0724C0.472875 9.42299 0.758125 9.70824 1.10875 9.70824H2.39306C2.52366 9.70824 2.6295 9.81408 2.6295 9.94468C2.6295 10.0753 2.52369 10.1811 2.39306 10.1811Z" fill="#986B54"/>
<path d="M14.8913 10.1811H13.607C13.4764 10.1811 13.3705 10.0753 13.3705 9.94468C13.3705 9.81408 13.4764 9.70824 13.607 9.70824H14.8913C15.2419 9.70824 15.5271 9.42299 15.5271 9.0724C15.5271 8.72177 15.2419 8.43652 14.8913 8.43652H13.2748C13.1442 8.43652 13.0383 8.33068 13.0383 8.20008C13.0383 8.06949 13.1442 7.96365 13.2748 7.96365H14.8913C15.5027 7.96365 16 8.46102 16 9.0724C16 9.68374 15.5027 10.1811 14.8913 10.1811Z" fill="#986B54"/>
<path d="M7.92942 4.58041C9.14845 4.58041 10.1367 3.59219 10.1367 2.37316C10.1367 1.15413 9.14845 0.165913 7.92942 0.165913C6.71039 0.165913 5.72217 1.15413 5.72217 2.37316C5.72217 3.59219 6.71039 4.58041 7.92942 4.58041Z" fill="#EAB14D"/>
<path d="M7.9291 0.165913C7.77432 0.165913 7.62332 0.182006 7.47754 0.212319C8.47998 0.420756 9.23323 1.30891 9.23323 2.37316C9.23323 3.43741 8.47998 4.3256 7.47754 4.53401C7.62332 4.56432 7.77432 4.58041 7.9291 4.58041C9.14813 4.58041 10.1364 3.59219 10.1364 2.37316C10.1364 1.15413 9.14813 0.165913 7.9291 0.165913Z" fill="#E49542"/>
<path d="M13.2744 3.65663H9.9124C9.69421 3.65663 9.51733 3.47975 9.51733 3.26156V2.80959C9.51733 2.59141 9.69421 2.41453 9.9124 2.41453H13.2744C13.4926 2.41453 13.6695 2.59141 13.6695 2.80959V3.26156C13.6695 3.47975 13.4926 3.65663 13.2744 3.65663Z" fill="#EAB14D"/>
<path d="M13.2741 2.41453H12.6426C12.8608 2.41453 13.0376 2.59141 13.0376 2.80959V3.26156C13.0376 3.47975 12.8608 3.65663 12.6426 3.65663H13.2741C13.4923 3.65663 13.6692 3.47975 13.6692 3.26156V2.80959C13.6692 2.59141 13.4923 2.41453 13.2741 2.41453Z" fill="#E49542"/>
<path d="M12.7029 4.89875H9.34086C9.12268 4.89875 8.9458 4.72187 8.9458 4.50369V4.05172C8.9458 3.83353 9.12268 3.65665 9.34086 3.65665H12.7029C12.9211 3.65665 13.0979 3.83353 13.0979 4.05172V4.50369C13.0979 4.72187 12.9211 4.89875 12.7029 4.89875Z" fill="#F6E266"/>
<path d="M12.7029 3.65665H12.0713C12.2895 3.65665 12.4664 3.83353 12.4664 4.05172V4.50369C12.4664 4.72187 12.2895 4.89875 12.0713 4.89875H12.7029C12.921 4.89875 13.0979 4.72187 13.0979 4.50369V4.05172C13.0979 3.83353 12.921 3.65665 12.7029 3.65665Z" fill="#ECBE6B"/>
<path d="M12.7029 2.41456H9.34086C9.12268 2.41456 8.9458 2.23768 8.9458 2.01949V1.56752C8.9458 1.34934 9.12268 1.17246 9.34086 1.17246H12.7029C12.9211 1.17246 13.0979 1.34934 13.0979 1.56752V2.01949C13.0979 2.23768 12.9211 2.41456 12.7029 2.41456Z" fill="#F6E266"/>
<path d="M12.7029 1.17246H12.0713C12.2895 1.17246 12.4664 1.34934 12.4664 1.56752V2.01949C12.4664 2.23768 12.2895 2.41456 12.0713 2.41456H12.7029C12.921 2.41456 13.0979 2.23768 13.0979 2.01949V1.56752C13.0979 1.34934 12.921 1.17246 12.7029 1.17246Z" fill="#ECBE6B"/>
<path d="M8.34617 7.32022C9.5652 7.32022 10.5534 6.332 10.5534 5.11297C10.5534 3.89394 9.5652 2.90572 8.34617 2.90572C7.12714 2.90572 6.13892 3.89394 6.13892 5.11297C6.13892 6.332 7.12714 7.32022 8.34617 7.32022Z" fill="#F6E266"/>
<path d="M8.34609 2.90565C8.19131 2.90565 8.04031 2.92174 7.89453 2.95206C8.89697 3.16049 9.65022 4.04865 9.65022 5.1129C9.65022 6.17715 8.89697 7.06534 7.89453 7.27374C8.04031 7.30406 8.19131 7.32015 8.34609 7.32015C9.56512 7.32015 10.5533 6.33193 10.5533 5.1129C10.5533 3.89387 9.56512 2.90565 8.34609 2.90565Z" fill="#ECBE6B"/>
<path d="M5.48826 6.60524C6.70729 6.60524 7.69551 5.61702 7.69551 4.39799C7.69551 3.17896 6.70729 2.19074 5.48826 2.19074C4.26923 2.19074 3.28101 3.17896 3.28101 4.39799C3.28101 5.61702 4.26923 6.60524 5.48826 6.60524Z" fill="#F6E266"/>
<path d="M5.48867 2.19074C5.33389 2.19074 5.18289 2.20684 5.03711 2.23715C6.03955 2.44559 6.7928 3.33374 6.7928 4.39799C6.7928 5.46224 6.03955 6.35043 5.03711 6.55884C5.18289 6.58915 5.33389 6.60524 5.48867 6.60524C6.7077 6.60524 7.69592 5.61702 7.69592 4.39799C7.69592 3.17896 6.7077 2.19074 5.48867 2.19074Z" fill="#ECBE6B"/>
<path d="M1.78516 10.3501C1.78516 12.0612 2.47675 13.6105 3.59559 14.7343C4.29881 15.4406 5.25691 15.8341 6.25359 15.8341H9.74606C10.7428 15.8341 11.7008 15.4406 12.4041 14.7343C13.5229 13.6105 14.2145 12.0612 14.2145 10.3501C14.2145 8.65844 13.5383 7.125 12.4418 6.00438L11.4785 5.68829H4.07031L3.55781 6.00438C2.46138 7.125 1.78516 8.65847 1.78516 10.3501Z" fill="url(#paint0_linear)"/>
<path d="M13.3078 6.00439H2.69195C2.51729 6.00439 2.37573 5.8628 2.37573 5.68817V5.21502C2.37573 5.04036 2.51733 4.89877 2.69195 4.89877H13.3078C13.4824 4.89877 13.624 5.04036 13.624 5.21502V5.68817C13.624 5.8628 13.4824 6.00439 13.3078 6.00439Z" fill="#AA7A63"/>
<path d="M13.3079 4.89869H12.5337C12.7083 4.89869 12.8499 5.04026 12.8499 5.21491V5.68807C12.8499 5.86272 12.7083 6.00429 12.5337 6.00429H13.3079C13.4825 6.00429 13.6241 5.86269 13.6241 5.68807V5.21491C13.6241 5.04029 13.4825 4.89869 13.3079 4.89869Z" fill="#986B54"/>
<path d="M12.5847 15.3337C13.8037 15.3337 14.7919 14.3455 14.7919 13.1265C14.7919 11.9074 13.8037 10.9192 12.5847 10.9192C11.3657 10.9192 10.3774 11.9074 10.3774 13.1265C10.3774 14.3455 11.3657 15.3337 12.5847 15.3337Z" fill="#F6E266"/>
<path d="M12.5846 10.9192C12.4298 10.9192 12.2788 10.9353 12.1331 10.9656C13.1355 11.1741 13.8887 12.0622 13.8887 13.1265C13.8887 14.1907 13.1355 15.0789 12.1331 15.2873C12.2788 15.3176 12.4298 15.3337 12.5846 15.3337C13.8036 15.3337 14.7919 14.3455 14.7919 13.1265C14.7919 11.9074 13.8036 10.9192 12.5846 10.9192Z" fill="#ECBE6B"/>
<defs>
<linearGradient id="paint0_linear" x1="3" y1="6.50005" x2="13" y2="14.0001" gradientUnits="userSpaceOnUse">
<stop stop-color="#5F95BD"/>
<stop offset="1" stop-color="#063150"/>
</linearGradient>
</defs>
</svg>
